<?xml version="1.0" encoding="UTF-8"?>
<svg id="_圖層_1" data-name="圖層 1" xmlns="http://www.w3.org/2000/svg" xmlns:xlink="http://www.w3.org/1999/xlink" viewBox="0 0 921 176">
  <defs>
    <style>
      .cls-1 {
        mask: url(#mask);
      }

      .cls-2 {
        fill: #019aff;
      }

      .cls-3 {
        fill: #039cff;
      }

      .cls-4 {
        fill: #029bff;
      }

      .cls-5 {
        fill: #fff;
      }

      .cls-6 {
        fill: #09f;
      }

      .cls-7 {
        fill: #31caff;
      }

      .cls-8 {
        fill: #30c9ff;
      }

      .cls-9 {
        fill: #2ec7ff;
      }

      .cls-10 {
        fill: #23bcff;
      }

      .cls-11 {
        fill: #1af;
      }

      .cls-12 {
        fill: #10a9ff;
      }

      .cls-13 {
        fill: #0fa8ff;
      }

      .cls-14 {
        fill: #0ea7ff;
      }

      .cls-15 {
        fill: #15aeff;
      }

      .cls-16 {
        fill: #14adff;
      }

      .cls-17 {
        fill: #1eb7ff;
      }

      .cls-18 {
        fill: #1db6ff;
      }

      .cls-19 {
        fill: #1cb5ff;
      }

      .cls-20 {
        fill: #2bf;
      }

      .cls-21 {
        fill: #21baff;
      }

      .cls-22 {
        fill: #20b9ff;
      }

      .cls-23 {
        fill: #1fb8ff;
      }

      .cls-24 {
        fill: #07a0ff;
      }

      .cls-25 {
        fill: #049dff;
      }

      .cls-26 {
        fill: #13acff;
      }

      .cls-27 {
        fill: #059eff;
      }

      .cls-28 {
        fill: #12abff;
      }

      .cls-29 {
        fill: #19b2ff;
      }

      .cls-30 {
        fill: #09a2ff;
      }

      .cls-31 {
        fill: #08a1ff;
      }

      .cls-32 {
        fill: #0da6ff;
      }

      .cls-33 {
        fill: #0ca5ff;
      }

      .cls-34 {
        fill: #1bb4ff;
      }

      .cls-35 {
        fill: #3cf;
      }

      .cls-36 {
        fill: #17b0ff;
      }

      .cls-37 {
        fill: #16afff;
      }

      .cls-38 {
        fill: #3e3e3e;
      }

      .cls-39 {
        fill: #069fff;
      }

      .cls-40 {
        fill: #0ba4ff;
      }

      .cls-41 {
        fill: #0aa3ff;
      }

      .cls-42 {
        fill: #18b1ff;
      }

      .cls-43 {
        fill: #1ab3ff;
      }

      .cls-44 {
        fill: #28c1ff;
      }

      .cls-45 {
        fill: #29c2ff;
      }

      .cls-46 {
        fill: #2bc4ff;
      }

      .cls-47 {
        fill: #27c0ff;
      }

      .cls-48 {
        fill: #2ac3ff;
      }

      .cls-49 {
        fill: #24bdff;
      }

      .cls-50 {
        fill: #2cc5ff;
      }

      .cls-51 {
        fill: #2dc6ff;
      }

      .cls-52 {
        fill: #2fc8ff;
      }

      .cls-53 {
        fill: #32cbff;
      }

      .cls-54 {
        fill: #25beff;
      }

      .cls-55 {
        fill: #26bfff;
      }

      .cls-56 {
        mask: url(#mask-1);
      }
    </style>
    <mask id="mask" x="102.27" y="49.82" width="126.82" height="127.6" maskUnits="userSpaceOnUse">
      <g id="mask0_2156_5141" data-name="mask0 2156 5141">
        <path class="cls-5" d="m166.23,49.82c-34.65,0-62.86,28.19-62.86,62.86v17.25h45.6v-17.25c0-9.51,7.74-17.25,17.25-17.25s17.25,7.74,17.25,17.25-7.74,17.25-17.25,17.25h60.45c1.57-5.49,2.41-11.27,2.41-17.25,0-34.65-28.19-62.86-62.85-62.86Z"/>
      </g>
    </mask>
    <mask id="mask-1" x=".48" y="-1.05" width="177.84" height="130.98" maskUnits="userSpaceOnUse">
      <g id="mask1_2156_5141" data-name="mask1 2156 5141">
        <path class="cls-5" d="m46.08,87.93c0-23.16,18.85-42,42-42,15.2,0,28.56,8.13,35.92,20.25,7.06-6.41,15.56-11.26,24.98-13.95,5.49-1.57,11.27-2.41,17.25-2.41h.72C152.76,20.56,122.74.33,88.08.33,39.77.33.48,39.62.48,87.93c0,15.21,3.9,29.52,10.75,42h76.86c-23.16,0-42-18.85-42-42Z"/>
      </g>
    </mask>
  </defs>
  <path class="cls-35" d="m123.99,66.18c.44-.4.89-.8,1.34-1.18-.44.39-.9.79-1.33,1.19,0,0,0,0,0,0Z"/>
  <path class="cls-35" d="m166.95,49.83C152.76,20.56,122.74.33,88.08.33,39.78.33.48,39.62.48,87.93c0,15.2,3.89,29.52,10.74,42,11.06,20.14,29.81,35.49,52.27,42.07,7.8,2.29,16.06,3.52,24.6,3.52h78.16c28.67,0,52.92-19.31,60.44-45.59,1.57-5.49,2.41-11.27,2.41-17.25,0-34.42-27.8-62.47-62.12-62.85h0Zm-78.87,80.1c-23.15,0-42-18.85-42-42s18.85-42,42-42c15.2,0,28.54,8.13,35.91,20.25.44-.4.89-.8,1.34-1.18-.44.39-.9.79-1.33,1.19,0,0,0,0-.01,0-12.66,11.51-20.61,28.1-20.61,46.5v17.25h-15.31,0Zm60.9,0v-17.25c0-9.51,7.75-17.25,17.26-17.25s17.25,7.74,17.25,17.25-7.75,17.25-17.25,17.25h-17.26Z"/>
  <path class="cls-35" d="m123.99,66.18c.44-.4.89-.8,1.34-1.18-.44.39-.9.79-1.33,1.19,0,0,0,0,0,0Z"/>
  <g class="cls-1">
    <g>
      <path class="cls-35" d="m137.85,108.97c13.25,0,24-10.74,24-24s-10.74-24-24-24-24,10.74-24,24,10.74,24,24,24Z"/>
      <path class="cls-53" d="m136.62,110.28c13.25,0,24-10.74,24-24s-10.74-24-24-24-24,10.74-24,24,10.74,24,24,24Z"/>
      <path class="cls-7" d="m135.44,111.63c13.25,0,24-10.74,24-24s-10.74-24-24-24-24,10.74-24,24,10.74,24,24,24Z"/>
      <path class="cls-8" d="m134.33,113.04c13.25,0,24-10.74,24-24s-10.74-24-24-24-24,10.74-24,24,10.74,24,24,24Z"/>
      <path class="cls-52" d="m133.28,114.49c13.25,0,24-10.74,24-24s-10.74-24-24-24-24,10.74-24,24,10.74,24,24,24Z"/>
      <path class="cls-9" d="m132.3,116c13.25,0,24-10.74,24-24s-10.74-24-24-24-24,10.74-24,24,10.74,24,24,24Z"/>
      <path class="cls-51" d="m131.38,117.55c13.25,0,24-10.74,24-24s-10.74-24-24-24-24,10.74-24,24,10.74,24,24,24Z"/>
      <path class="cls-50" d="m130.53,119.15c13.25,0,24-10.74,24-24s-10.74-24-24-24-24,10.74-24,24,10.74,24,24,24Z"/>
      <path class="cls-46" d="m129.75,120.78c13.25,0,24-10.74,24-24s-10.74-24-24-24-24,10.74-24,24,10.74,24,24,24Z"/>
      <path class="cls-48" d="m129.05,122.46c13.25,0,24-10.74,24-24s-10.74-24-24-24-24,10.74-24,24,10.74,24,24,24Z"/>
      <path class="cls-45" d="m128.42,124.18c13.25,0,24-10.74,24-24s-10.74-24-24-24-24,10.74-24,24,10.74,24,24,24Z"/>
      <path class="cls-44" d="m127.86,125.93c13.25,0,24-10.74,24-24s-10.74-24-24-24-24,10.74-24,24,10.74,24,24,24Z"/>
      <path class="cls-47" d="m127.39,127.71c13.25,0,24-10.74,24-24s-10.74-24-24-24-24,10.74-24,24,10.74,24,24,24Z"/>
      <path class="cls-55" d="m127,129.53c13.25,0,24-10.74,24-24s-10.74-24-24-24-24,10.74-24,24,10.74,24,24,24Z"/>
      <path class="cls-54" d="m126.69,131.38c13.25,0,24-10.74,24-24s-10.74-24-24-24-24,10.74-24,24,10.74,24,24,24Z"/>
      <path class="cls-49" d="m126.46,133.25c13.25,0,24-10.74,24-24s-10.74-24-24-24-24,10.74-24,24,10.74,24,24,24Z"/>
      <path class="cls-10" d="m126.33,135.15c13.25,0,24-10.74,24-24s-10.74-24-24-24-24,10.74-24,24,10.74,24,24,24Z"/>
      <path class="cls-20" d="m126.28,137.07c13.25,0,24-10.74,24-24s-10.74-24-24-24-24,10.74-24,24,10.74,24,24,24Z"/>
      <path class="cls-21" d="m126.28,138.91c13.25,0,24-10.74,24-24s-10.74-24-24-24-24,10.74-24,24,10.74,24,24,24Z"/>
      <path class="cls-22" d="m126.28,140.74c13.25,0,24-10.74,24-24s-10.74-24-24-24-24,10.74-24,24,10.74,24,24,24Z"/>
      <path class="cls-23" d="m126.27,142.58c13.25,0,24-10.74,24-24s-10.74-24-24-24-24,10.74-24,24,10.74,24,24,24Z"/>
      <path class="cls-17" d="m126.27,144.41c13.25,0,24-10.74,24-24s-10.74-24-24-24-24,10.74-24,24,10.74,24,24,24Z"/>
      <path class="cls-18" d="m126.27,146.24c13.25,0,24-10.74,24-24s-10.74-24-24-24-24,10.74-24,24,10.74,24,24,24Z"/>
      <path class="cls-19" d="m126.27,148.08c13.25,0,24-10.74,24-24s-10.74-24-24-24-24,10.74-24,24,10.74,24,24,24Z"/>
      <path class="cls-34" d="m126.27,149.91c13.25,0,24-10.74,24-24s-10.74-24-24-24-24,10.74-24,24,10.74,24,24,24Z"/>
      <path class="cls-43" d="m149.93,131.72c2.2-13.07-6.61-25.45-19.68-27.65-13.07-2.2-25.45,6.61-27.64,19.68-2.2,13.07,6.61,25.45,19.68,27.64,13.07,2.2,25.45-6.61,27.65-19.68Z"/>
      <path class="cls-29" d="m126.27,153.58c13.25,0,24-10.74,24-24s-10.74-24-24-24-24,10.74-24,24,10.74,24,24,24Z"/>
      <path class="cls-42" d="m126.27,155.41c13.25,0,24-10.74,24-24s-10.74-24-24-24-24,10.74-24,24,10.74,24,24,24Z"/>
      <path class="cls-36" d="m126.27,157.24c13.25,0,24-10.74,24-24s-10.74-24-24-24-24,10.74-24,24,10.74,24,24,24Z"/>
      <path class="cls-37" d="m126.27,159.08c13.25,0,24-10.74,24-24s-10.74-24-24-24-24,10.74-24,24,10.74,24,24,24Z"/>
      <path class="cls-15" d="m126.27,160.91c13.25,0,24-10.74,24-24s-10.74-24-24-24-24,10.74-24,24,10.74,24,24,24Z"/>
      <path class="cls-16" d="m126.27,162.75c13.25,0,24-10.74,24-24s-10.74-24-24-24-24,10.74-24,24,10.74,24,24,24Z"/>
      <path class="cls-26" d="m136.12,162.45c12.09-5.44,17.47-19.65,12.04-31.73-5.44-12.09-19.65-17.47-31.73-12.04-12.09,5.44-17.47,19.65-12.04,31.73,5.44,12.08,19.65,17.47,31.73,12.03Z"/>
      <path class="cls-28" d="m126.27,166.42c13.25,0,24-10.74,24-24s-10.74-24-24-24-24,10.74-24,24,10.74,24,24,24Z"/>
      <path class="cls-11" d="m126.27,168.25c13.25,0,24-10.74,24-24s-10.74-24-24-24-24,10.74-24,24,10.74,24,24,24Z"/>
      <path class="cls-12" d="m126.27,170.09c13.25,0,24-10.74,24-24s-10.74-24-24-24-24,10.74-24,24,10.74,24,24,24Z"/>
      <path class="cls-13" d="m126.27,171.92c13.25,0,24-10.74,24-24s-10.74-24-24-24-24,10.74-24,24,10.74,24,24,24Z"/>
      <path class="cls-14" d="m126.27,173.75c13.25,0,24-10.74,24-24s-10.74-24-24-24-24,10.74-24,24,10.74,24,24,24Z"/>
      <path class="cls-32" d="m126.27,175.59c13.25,0,24-10.74,24-24s-10.74-24-24-24-24,10.74-24,24,10.74,24,24,24Z"/>
      <path class="cls-33" d="m126.27,177.42c13.25,0,24-10.74,24-24s-10.74-24-24-24-24,10.74-24,24,10.74,24,24,24Z"/>
    </g>
  </g>
  <g class="cls-56">
    <g>
      <path class="cls-35" d="m80.79,46.69c10.92-7.51,13.69-22.45,6.18-33.37C79.46,2.4,64.52-.37,53.59,7.14c-10.92,7.51-13.69,22.45-6.18,33.37,7.51,10.92,22.45,13.69,33.37,6.18Z"/>
      <path class="cls-53" d="m81.12,47.16c11.66-6.3,16.01-20.86,9.71-32.52C84.52,2.98,69.96-1.37,58.3,4.93c-11.66,6.3-16.01,20.86-9.71,32.52,6.3,11.66,20.86,16.01,32.52,9.71Z"/>
      <path class="cls-7" d="m96.23,26.43c.63-13.24-9.58-24.48-22.82-25.12-13.24-.63-24.48,9.58-25.12,22.82-.63,13.24,9.58,24.48,22.82,25.12,13.24.63,24.48-9.58,25.12-22.82Z"/>
      <path class="cls-8" d="m98.84,24.71c.05-13.25-10.66-24.03-23.91-24.08-13.25-.05-24.03,10.66-24.08,23.91-.05,13.25,10.66,24.03,23.91,24.08,13.25.05,24.03-10.66,24.08-23.91Z"/>
      <path class="cls-52" d="m88,45.62c11.9-5.83,16.82-20.21,10.99-32.11C93.16,1.62,78.78-3.3,66.88,2.53c-11.9,5.83-16.82,20.21-10.99,32.11,5.83,11.9,20.21,16.82,32.11,10.99Z"/>
      <path class="cls-9" d="m89.65,45.63c12.15-5.3,17.7-19.45,12.39-31.59C96.75,1.89,82.6-3.66,70.46,1.64c-12.15,5.3-17.7,19.45-12.39,31.59,5.3,12.15,19.45,17.7,31.59,12.39Z"/>
      <path class="cls-51" d="m105.75,29.94c3.66-12.74-3.69-26.03-16.43-29.7-12.74-3.66-26.03,3.69-29.7,16.43-3.66,12.74,3.69,26.03,16.43,29.7,12.74,3.66,26.03-3.69,29.7-16.43Z"/>
      <path class="cls-50" d="m88.96,46.79c13.1-2.01,22.09-14.25,20.09-27.35-2.01-13.1-14.25-22.09-27.35-20.09-13.1,2.01-22.09,14.25-20.09,27.35,2.01,13.1,14.25,22.09,27.35,20.09Z"/>
      <path class="cls-46" d="m110.75,30.54c4.19-12.57-2.61-26.16-15.19-30.35-12.57-4.19-26.16,2.62-30.35,15.19-4.19,12.57,2.62,26.16,15.19,30.35,12.57,4.19,26.16-2.62,30.35-15.19Z"/>
      <path class="cls-48" d="m70.11,10.51c6.87-11.33,21.62-14.95,32.97-8.08,11.33,6.87,14.95,21.63,8.08,32.97-6.87,11.33-21.63,14.95-32.97,8.08-11.33-6.87-14.95-21.63-8.08-32.97Z"/>
      <path class="cls-45" d="m113.46,36.07c7.18-11.14,3.97-25.99-7.17-33.17-11.14-7.18-25.99-3.97-33.17,7.17-7.18,11.14-3.97,25.99,7.17,33.17,11.14,7.18,25.99,3.97,33.17-7.17Z"/>
      <path class="cls-44" d="m98.97,47.06c13.15-1.67,22.45-13.69,20.78-26.83-1.67-13.15-13.69-22.45-26.83-20.78-13.15,1.67-22.45,13.69-20.78,26.83,1.67,13.15,13.69,22.45,26.83,20.78Z"/>
      <path class="cls-47" d="m101.22,47.44c13.17-1.46,22.67-13.32,21.21-26.49-1.46-13.17-13.32-22.67-26.49-21.21-13.17,1.46-22.67,13.32-21.21,26.49,1.46,13.17,13.32,22.67,26.49,21.21Z"/>
      <path class="cls-55" d="m103.04,47.94c13.22-.99,23.13-12.5,22.14-25.72C124.19,9,112.68-.91,99.46.08c-13.22.99-23.13,12.5-22.14,25.72.99,13.22,12.5,23.13,25.72,22.14Z"/>
      <path class="cls-54" d="m103.97,48.57c13.25,0,24-10.74,24-24S117.22.58,103.97.58s-24,10.74-24,24,10.74,24,24,24Z"/>
      <path class="cls-49" d="m115.59,47.49c12.29-4.95,18.25-18.93,13.3-31.22-4.95-12.29-18.93-18.25-31.22-13.3-12.29,4.95-18.25,18.93-13.3,31.22,4.95,12.29,18.93,18.25,31.22,13.3Z"/>
      <path class="cls-10" d="m116.11,49.03c12.7-3.79,19.92-17.16,16.14-29.86-3.79-12.7-17.16-19.92-29.86-16.14-12.7,3.79-19.92,17.16-16.14,29.86,3.79,12.7,17.15,19.92,29.86,16.14Z"/>
      <path class="cls-20" d="m129.71,42.87c8.82-9.89,7.96-25.06-1.94-33.88-9.89-8.82-25.06-7.95-33.88,1.94-8.82,9.89-7.95,25.06,1.94,33.88,9.89,8.82,25.06,7.95,33.88-1.94Z"/>
      <path class="cls-21" d="m138.09,31.13c1.79-13.13-7.4-25.23-20.53-27.02-13.13-1.79-25.23,7.4-27.02,20.53-1.79,13.13,7.4,25.23,20.53,27.02,13.13,1.79,25.23-7.4,27.02-20.53Z"/>
      <path class="cls-22" d="m117.44,52.96c13.25-.37,23.68-11.42,23.31-24.67-.38-13.25-11.42-23.68-24.67-23.31-13.25.37-23.68,11.42-23.31,24.67.37,13.25,11.42,23.68,24.67,23.31Z"/>
      <path class="cls-23" d="m142.47,35.79c3.12-12.88-4.79-25.85-17.68-28.97-12.88-3.12-25.85,4.8-28.97,17.68-3.12,12.88,4.8,25.85,17.68,28.97,12.88,3.12,25.85-4.8,28.97-17.68Z"/>
      <path class="cls-17" d="m144.61,37.88c3.57-12.76-3.89-26-16.65-29.57-12.76-3.57-26,3.89-29.57,16.65-3.57,12.76,3.89,26,16.65,29.57s26-3.89,29.57-16.65Z"/>
      <path class="cls-18" d="m146.68,39.92c3.94-12.65-3.12-26.11-15.77-30.05-12.65-3.94-26.11,3.12-30.05,15.78-3.94,12.65,3.12,26.11,15.77,30.05,12.65,3.94,26.11-3.12,30.05-15.78Z"/>
      <path class="cls-19" d="m148.51,42.43c4.53-12.45-1.89-26.22-14.35-30.75-12.46-4.53-26.22,1.89-30.75,14.35-4.53,12.45,1.89,26.22,14.35,30.75,12.45,4.53,26.22-1.89,30.75-14.35Z"/>
      <path class="cls-34" d="m150.3,44.86c5.03-12.26-.84-26.28-13.1-31.31-12.26-5.03-26.28.84-31.31,13.1-5.03,12.26.84,26.28,13.1,31.31,12.26,5.03,26.28-.84,31.31-13.1Z"/>
      <path class="cls-43" d="m142.4,58.02c11.4-6.76,15.16-21.48,8.4-32.88-6.76-11.4-21.48-15.16-32.88-8.41-11.4,6.76-15.16,21.48-8.4,32.88,6.76,11.4,21.48,15.16,32.88,8.41Z"/>
      <path class="cls-29" d="m153.7,49.67c5.85-11.89.95-26.28-10.94-32.12-11.89-5.85-26.28-.95-32.12,10.94-5.85,11.89-.95,26.28,10.94,32.12,11.89,5.85,26.28.95,32.12-10.94Z"/>
      <path class="cls-42" d="m143.13,63.09c12.28-4.98,18.2-18.98,13.21-31.26-4.98-12.28-18.98-18.2-31.26-13.21-12.28,4.98-18.19,18.98-13.21,31.26,4.98,12.28,18.98,18.2,31.26,13.21Z"/>
      <path class="cls-36" d="m156.34,55.35c6.99-11.26,3.52-26.06-7.74-33.04-11.26-6.99-26.06-3.52-33.04,7.74-6.99,11.26-3.52,26.06,7.74,33.04,11.26,6.99,26.06,3.52,33.04-7.74Z"/>
      <path class="cls-37" d="m149.11,65.73c11.67-6.28,16.04-20.83,9.76-32.5-6.28-11.67-20.83-16.04-32.5-9.76-11.67,6.28-16.04,20.83-9.76,32.5,6.28,11.67,20.83,16.04,32.5,9.76Z"/>
      <path class="cls-15" d="m162.87,51.74c2.85-12.94-5.34-25.74-18.28-28.59s-25.75,5.34-28.59,18.28c-2.85,12.94,5.34,25.74,18.28,28.59,12.94,2.85,25.74-5.34,28.59-18.28Z"/>
      <path class="cls-16" d="m164.45,53.91c2.91-12.93-5.21-25.77-18.14-28.68-12.93-2.91-25.77,5.21-28.68,18.14-2.91,12.93,5.21,25.77,18.14,28.68,12.93,2.91,25.77-5.21,28.68-18.14Z"/>
      <path class="cls-26" d="m161.3,65.74c8.28-10.35,6.61-25.45-3.74-33.73-10.35-8.28-25.45-6.61-33.73,3.74-8.28,10.35-6.61,25.45,3.74,33.73,10.35,8.28,25.45,6.61,33.73-3.74Z"/>
      <path class="cls-28" d="m160.99,69.89c9.37-9.37,9.37-24.57,0-33.94-9.37-9.37-24.57-9.37-33.94,0-9.37,9.37-9.37,24.57,0,33.94,9.37,9.37,24.57,9.37,33.94,0Z"/>
      <path class="cls-11" d="m160.96,73.4c10.08-8.6,11.28-23.75,2.68-33.83-8.6-10.08-23.75-11.28-33.83-2.68-10.08,8.6-11.28,23.75-2.68,33.83,8.6,10.08,23.75,11.28,33.83,2.68Z"/>
      <path class="cls-12" d="m146.66,81.42c13.25,0,24-10.74,24-24s-10.74-24-24-24-24,10.74-24,24,10.74,24,24,24Z"/>
      <path class="cls-13" d="m166.72,74.56c8.18-10.43,6.36-25.51-4.06-33.69-10.43-8.18-25.51-6.36-33.69,4.07-8.18,10.43-6.36,25.51,4.07,33.69,10.43,8.18,25.51,6.36,33.69-4.07Z"/>
      <path class="cls-14" d="m168.37,76.23c7.78-10.73,5.4-25.73-5.33-33.52-10.73-7.78-25.73-5.4-33.52,5.33-7.78,10.73-5.4,25.73,5.33,33.52,10.73,7.78,25.73,5.4,33.51-5.33Z"/>
      <path class="cls-32" d="m163.35,84.45c10.99-7.41,13.9-22.32,6.49-33.31-7.4-10.99-22.32-13.9-33.31-6.49s-13.9,22.32-6.49,33.31c7.4,10.99,22.32,13.9,33.31,6.49Z"/>
      <path class="cls-33" d="m150.83,91.01c13.25,0,24-10.74,24-24s-10.74-24-24-24-24,10.74-24,24,10.74,24,24,24Z"/>
      <path class="cls-40" d="m162.67,90.82c11.77-6.1,16.37-20.58,10.27-32.34-6.1-11.77-20.58-16.37-32.35-10.27-11.77,6.1-16.37,20.58-10.27,32.34,6.1,11.77,20.58,16.37,32.35,10.27Z"/>
      <path class="cls-41" d="m164.13,92.95c11.55-6.51,15.63-21.14,9.12-32.69-6.51-11.55-21.14-15.63-32.69-9.12-11.55,6.51-15.63,21.14-9.12,32.69,6.51,11.55,21.14,15.63,32.69,9.12Z"/>
      <path class="cls-30" d="m166.94,94.1c10.76-7.73,13.22-22.73,5.49-33.49-7.73-10.76-22.73-13.22-33.49-5.48-10.76,7.73-13.22,22.73-5.49,33.49,7.73,10.76,22.73,13.22,33.49,5.48Z"/>
      <path class="cls-31" d="m163.2,99.13c12.1-5.4,17.54-19.58,12.15-31.69-5.4-12.1-19.59-17.54-31.69-12.15-12.11,5.4-17.54,19.58-12.15,31.69,5.4,12.1,19.59,17.54,31.69,12.15Z"/>
      <path class="cls-24" d="m176.86,86.56c3.7-12.73-3.62-26.04-16.34-29.74-12.73-3.7-26.04,3.62-29.74,16.34-3.7,12.73,3.62,26.04,16.34,29.74,12.73,3.7,26.04-3.62,29.74-16.34Z"/>
      <path class="cls-39" d="m173.31,96.87c7.93-10.62,5.75-25.65-4.86-33.59-10.62-7.93-25.65-5.75-33.59,4.86-7.93,10.62-5.75,25.65,4.86,33.59,10.62,7.93,25.65,5.75,33.59-4.86Z"/>
      <path class="cls-27" d="m174.57,98c7.07-11.21,3.71-26.03-7.5-33.1-11.21-7.07-26.03-3.71-33.1,7.5-7.07,11.21-3.71,26.03,7.5,33.1,11.21,7.07,26.03,3.71,33.1-7.5Z"/>
      <path class="cls-25" d="m160.33,111.12c12.83-3.32,20.54-16.42,17.21-29.25-3.32-12.83-16.42-20.54-29.25-17.21-12.83,3.32-20.54,16.42-17.21,29.25,3.32,12.83,16.42,20.54,29.25,17.21Z"/>
      <path class="cls-3" d="m159.57,114c12.92-2.93,21.02-15.79,18.09-28.71-2.93-12.92-15.79-21.02-28.71-18.09-12.92,2.93-21.02,15.79-18.09,28.71,2.93,12.92,15.79,21.02,28.71,18.09Z"/>
      <path class="cls-4" d="m165.28,114.57c11.72-6.19,16.21-20.7,10.02-32.42-6.18-11.72-20.7-16.21-32.42-10.02-11.72,6.19-16.21,20.7-10.02,32.42,6.19,11.72,20.7,16.21,32.42,10.02Z"/>
      <path class="cls-2" d="m153.83,120.05c13.25-.02,23.98-10.77,23.97-24.03-.02-13.25-10.77-23.98-24.03-23.97-13.25.02-23.98,10.77-23.97,24.03.02,13.25,10.77,23.98,24.03,23.97Z"/>
      <path class="cls-6" d="m155.41,122.72c13.21-1.13,23-12.75,21.87-25.95-1.13-13.21-12.75-23-25.95-21.87-13.2,1.13-23,12.75-21.87,25.95,1.13,13.21,12.75,23,25.95,21.87Z"/>
    </g>
  </g>
  <path class="cls-38" d="m425.31,6.95c-25.74,0-46.68,20.94-46.68,46.68s20.94,46.68,46.68,46.68,46.68-20.94,46.68-46.68-20.94-46.68-46.68-46.68Zm0,79.03c-17.85,0-32.35-14.52-32.35-32.35s14.52-32.35,32.35-32.35,32.35,14.52,32.35,32.35-14.52,32.35-32.35,32.35Zm157.57-50.3c0-13.85-11.27-25.12-25.12-25.12h-62.7v14.32h62.7c5.96,0,10.79,4.85,10.79,10.8s-4.85,10.8-10.79,10.8h-46.56c-8.9,0-16.14,7.24-16.14,16.14v34.11h14.32v-34.11c0-1,.82-1.82,1.82-1.82h29.5l26.16,35.92h17.72l-26.18-35.94c13.56-.34,24.48-11.47,24.48-25.1v-.02Zm20.31-10.8h38.54v71.84h14.32V24.89h38.54v-14.32h-91.4v14.32h0Zm111.72,10.79v35.92c0,13.85,11.27,25.12,25.12,25.12h62.7v-14.32h-62.7c-5.96,0-10.79-4.85-10.79-10.8v-35.92c0-5.96,4.85-10.8,10.79-10.8h62.7v-14.32h-62.7c-13.85,0-25.12,11.27-25.12,25.12v.02Zm84.24,25.12v-14.32h-55.6v14.32h55.6Zm-480.26,19.31c-.61,1.39-1.99,2.29-3.51,2.29s-2.9-.9-3.51-2.29l-30.78-69.55h-15.66l33.35,75.35c2.91,6.57,9.42,10.81,16.6,10.81s13.7-4.24,16.6-10.81l33.35-75.35h-15.66l-30.78,69.55ZM920.48,10.56h-19.22l-28.93,32.34-28.94-32.34h-19.22l38.54,43.08-38.54,43.08h19.22l28.94-32.34,28.93,32.34h19.22l-38.54-43.08,38.54-43.08Z"/>
  <path class="cls-38" d="m268.67,168.37v-41.4h17.26c4.46,0,7.89.94,10.3,2.82,2.41,1.88,3.61,4.52,3.61,7.93,0,2.55-.76,4.68-2.29,6.4-1.53,1.72-3.62,2.88-6.28,3.47v-.88c3.06.39,5.42,1.47,7.11,3.23,1.69,1.76,2.53,4.1,2.53,6.99,0,3.68-1.24,6.5-3.73,8.49-2.48,1.97-5.98,2.97-10.48,2.97h-18.03Zm5.93-23.32h10.4c2.97,0,5.21-.57,6.7-1.71,1.48-1.13,2.23-2.8,2.23-4.99s-.74-3.85-2.23-4.99c-1.49-1.13-3.72-1.7-6.7-1.7h-10.4v13.39h0Zm0,18.57h11.45c2.78,0,4.97-.53,6.55-1.58,1.58-1.06,2.38-2.84,2.38-5.35s-.8-4.29-2.38-5.35c-1.59-1.06-3.77-1.58-6.55-1.58h-11.45v13.86Z"/>
  <path class="cls-38" d="m352.41,168.37v-19.44l1.35,3.87-17.44-25.84h7.05l12.98,19.79h-1.46l12.98-19.79h6.81l-17.38,25.84,1.23-3.87v19.44h-6.12Z"/>
  <path class="cls-38" d="m477.84,168.37l-18.21-41.4h6.58l15.5,36.29h-2.11l15.56-36.29h6.28l-18.26,41.4h-5.35Z"/>
  <path class="cls-38" d="m541.05,168.37v-41.4h6.11v41.4h-6.11Z"/>
  <path class="cls-38" d="m605,168.37l-18.21-41.4h6.58l15.5,36.29h-2.11l15.57-36.29h6.28l-18.26,41.4h-5.35Z"/>
  <path class="cls-38" d="m664.66,147.64c0-4.35.76-8.11,2.29-11.28,1.53-3.17,3.75-5.61,6.66-7.34,2.92-1.72,6.39-2.58,10.42-2.58s7.44.86,10.34,2.58c2.9,1.72,5.14,4.17,6.73,7.34,1.58,3.17,2.38,6.91,2.38,11.22s-.8,8.12-2.38,11.3c-1.58,3.19-3.84,5.66-6.75,7.4-2.92,1.74-6.36,2.61-10.3,2.61s-7.5-.87-10.4-2.61c-2.9-1.74-5.11-4.21-6.66-7.4-1.55-3.19-2.32-6.94-2.32-11.25h0Zm6.4,0c0,5.01,1.09,8.92,3.29,11.75,2.2,2.82,5.42,4.23,9.69,4.23s7.36-1.4,9.63-4.2,3.41-6.73,3.41-11.78-1.12-8.97-3.37-11.75c-2.25-2.78-5.47-4.17-9.66-4.17s-7.5,1.39-9.69,4.17c-2.2,2.78-3.29,6.7-3.29,11.75Z"/>
  <path class="cls-38" d="m753.96,168.37v-36.29h-14.16v-5.11h34.41v5.11h-14.16v36.29h-6.11,0Z"/>
  <path class="cls-38" d="m814.73,168.37v-41.4h27.13v4.87h-21.2v13.04h19.85v4.93h-19.85v13.62h21.2v4.93h-27.13Z"/>
  <path class="cls-38" d="m882.89,168.37v-41.4h6.11v18.61h.12l19.03-18.61h7.58l-22.32,21.5.06-2.88,23.78,22.78h-7.81l-20.32-19.32h-.12v19.32h-6.11Z"/>
</svg>